<svg width="24" height="24" viewBox="0 0 24 24" fill="none" xmlns="http://www.w3.org/2000/svg">
<path d="M12 5.33333L7.33333 0H0L9.33333 11.3333L17.014 8.16667L12 5.33333Z" fill="#55ACEE"/>
<path d="M16.6667 0L12 5.33333L15.5933 10.208L16.4113 9.21533L24 0H16.6667Z" fill="#3B88C3"/>
<path d="M15.47 10.684C15.5234 10.5393 15.5574 10.3853 15.5574 10.222C15.5574 9.86838 15.4169 9.52924 15.1668 9.2792C14.9168 9.02915 14.5776 8.88867 14.224 8.88867H9.77935C9.42573 8.88867 9.08659 9.02915 8.83654 9.2792C8.5865 9.52924 8.44602 9.86838 8.44602 10.222C8.44602 10.3853 8.47935 10.5393 8.53335 10.684C6.36135 11.9013 4.89069 14.222 4.89069 16.8887C4.89002 20.816 8.07402 24 12.0014 24C15.9287 24 19.1127 20.816 19.1127 16.8887C19.1127 14.222 17.642 11.9013 15.47 10.684Z" fill="#CCD6DD"/>
<path d="M14.668 19.2807H12.306C12.8913 18.458 13.914 17.1247 14.3127 16.4133C14.612 15.8273 14.7987 15.454 14.7987 14.7933C14.7987 13.4093 13.752 12.2753 11.9693 12.2753C10.486 12.2753 9.47601 13.4967 9.47601 13.4967C9.38867 13.5967 9.40134 13.746 9.48867 13.8213L10.2493 14.594C10.2718 14.6177 10.2988 14.6366 10.3288 14.6495C10.3587 14.6624 10.391 14.669 10.4237 14.669C10.4563 14.669 10.4886 14.6624 10.5186 14.6495C10.5485 14.6366 10.5756 14.6177 10.598 14.594C10.8347 14.332 11.296 13.9707 11.8067 13.9707C12.5047 13.9707 12.904 14.394 12.904 14.868C12.904 15.2167 12.742 15.566 12.58 15.8153C11.844 16.9367 9.99934 19.4427 9.27667 20.39V20.6393C9.27667 20.7647 9.37601 20.876 9.51334 20.876H14.668C14.73 20.8735 14.7888 20.8478 14.8326 20.8039C14.8765 20.7601 14.9022 20.7013 14.9047 20.6393V19.518C14.9028 19.4557 14.8773 19.3965 14.8334 19.3524C14.7894 19.3083 14.7303 19.2827 14.668 19.2807Z" fill="#121212"/>
</svg>
