<svg width="24" height="24" viewBox="0 0 24 24" fill="none" xmlns="http://www.w3.org/2000/svg">
<path d="M12 5.33333L7.33333 0H0L9.33333 11.3333L17.014 8.16667L12 5.33333Z" fill="#55ACEE"/>
<path d="M16.6667 0L12 5.33333L15.5933 10.208L16.4113 9.21533L24 0H16.6667Z" fill="#3B88C3"/>
<path d="M15.47 10.684C15.5234 10.5393 15.5574 10.3853 15.5574 10.222C15.5574 9.86838 15.4169 9.52924 15.1668 9.2792C14.9168 9.02915 14.5776 8.88867 14.224 8.88867H9.77935C9.42573 8.88867 9.08659 9.02915 8.83654 9.2792C8.5865 9.52924 8.44602 9.86838 8.44602 10.222C8.44602 10.3853 8.47935 10.5393 8.53335 10.684C6.36135 11.9013 4.89069 14.222 4.89069 16.8887C4.89002 20.816 8.07402 24 12.0014 24C15.9287 24 19.1127 20.816 19.1127 16.8887C19.1127 14.222 17.642 11.9013 15.47 10.684Z" fill="#FF8A3B"/>
<path d="M9.41402 19.5666L10.1993 18.7813C10.2385 18.7387 10.2923 18.7124 10.3501 18.7077C10.4078 18.703 10.4651 18.7202 10.5107 18.756C10.5107 18.756 11.2834 19.33 11.8814 19.33C12.418 19.33 12.9667 18.8813 12.9667 18.3326C12.9667 17.784 12.4054 17.3233 11.4834 17.3233H11.0574C10.9953 17.3211 10.9365 17.2955 10.8926 17.2515C10.8488 17.2076 10.8233 17.1487 10.8214 17.0866V16.052C10.8214 15.9146 10.9334 15.8153 11.0574 15.8153H11.4834C12.356 15.8153 12.8167 15.392 12.8167 14.856C12.8167 14.3193 12.356 13.9213 11.8194 13.9213C11.2707 13.9213 10.922 14.208 10.7354 14.4193C10.6474 14.5193 10.4987 14.5193 10.3993 14.4326L9.63868 13.6846C9.53802 13.5966 9.55068 13.448 9.63868 13.3606C9.63868 13.3606 10.6607 12.2633 12.0187 12.2633C13.4647 12.2633 14.7113 13.1486 14.7113 14.5446C14.7113 15.504 13.988 16.2146 13.4274 16.476V16.514C14.0134 16.7633 14.9353 17.536 14.9353 18.608C14.9353 19.9666 13.7513 20.9893 12.0307 20.9893C10.4613 20.9893 9.66268 20.216 9.40135 19.88C9.32602 19.7906 9.33935 19.6533 9.41402 19.5666Z" fill="white"/>
</svg>
